HIERARCHY
ROOT root
{
	OFFSET	0	13.1	24.9
	CHANNELS 6  Xposition Yposition Zposition Xrotation Yrotation Zrotation
	JOINT spine_1
	{
		OFFSET	0	9.99999	0
		CHANNELS 3  Xrotation Yrotation Zrotation
		JOINT spine_2
		{
			OFFSET	0	112	-10
			CHANNELS 3  Xrotation Yrotation Zrotation
			JOINT spine_3
			{
				OFFSET	0	206.5	19.3
				CHANNELS 3  Xrotation Yrotation Zrotation
				JOINT spine_4
				{
					OFFSET	0	110.4	14.6
					CHANNELS 3  Xrotation Yrotation Zrotation
					JOINT neck_1
					{
						OFFSET	0	71.8	-50.3
						CHANNELS 3  Xrotation Yrotation Zrotation
						JOINT neck_2
						{
							OFFSET	0	86.2	-25.8
							CHANNELS 3  Xrotation Yrotation Zrotation
							JOINT head_ee
							{
								OFFSET	0	179.8	-8.7
								CHANNELS 3  Xrotation Yrotation Zrotation
								End Site
								{
									OFFSET	1	0	0
								}
							}
						}
					}
					JOINT left_clavicle
					{
						OFFSET	-43.2	22.4	-70.8
						CHANNELS 3  Xrotation Yrotation Zrotation
						JOINT left_shoulder
						{
							OFFSET	-93.9	-5.79999	48.7
							CHANNELS 3  Xrotation Yrotation Zrotation
							JOINT left_elbow
							{
								OFFSET	-291.4	-30.8	15.2
								CHANNELS 3  Xrotation Yrotation Zrotation
								JOINT left_lowarm_twist
								{
									OFFSET	-110.7	-3.89999	13.6
									CHANNELS 3  Xrotation Yrotation Zrotation
									JOINT left_hand
									{
										OFFSET	-110.7	-3.89999	13.6
										CHANNELS 3  Xrotation Yrotation Zrotation
										JOINT left_ee
										{
											OFFSET	-80.8	-5.10001	12.1
											CHANNELS 3  Xrotation Yrotation Zrotation
											End Site
											{
												OFFSET	1	0	0
											}
										}
									}
								}
							}
						}
					}
					JOINT right_clavicle
					{
						OFFSET	43.2	22.4	-70.8
						CHANNELS 3  Xrotation Yrotation Zrotation
						JOINT right_shoulder
						{
							OFFSET	93.9	-5.79999	48.7
							CHANNELS 3  Xrotation Yrotation Zrotation
							JOINT right_elbow
							{
								OFFSET	291.4	-30.8	15.2
								CHANNELS 3  Xrotation Yrotation Zrotation
								JOINT right_lowarm_twist
								{
									OFFSET	110.7	-3.89999	13.6
									CHANNELS 3  Xrotation Yrotation Zrotation
									JOINT right_hand
									{
										OFFSET	110.7	-3.89999	13.6
										CHANNELS 3  Xrotation Yrotation Zrotation
										JOINT right_ee
										{
											OFFSET	80.8	-5.10001	12.1
											CHANNELS 3  Xrotation Yrotation Zrotation
											End Site
											{
												OFFSET	1	0	0
											}
										}
									}
								}
							}
						}
					}
				}
			}
		}
	}
	JOINT left_hip
	{
		OFFSET	-82.8	-127.5	0.300001
		CHANNELS 3  Xrotation Yrotation Zrotation
		JOINT left_knee
		{
			OFFSET	-28.2	-396.7	2.2
			CHANNELS 3  Xrotation Yrotation Zrotation
			JOINT left_ankle
			{
				OFFSET	-11.7	-411.3	35.4
				CHANNELS 3  Xrotation Yrotation Zrotation
				JOINT left_toes
				{
					OFFSET	0	-60	-88.6
					CHANNELS 3  Xrotation Yrotation Zrotation
					JOINT left_foot_ee
					{
						OFFSET	-22.5	-16.5	-42.2
						CHANNELS 3  Xrotation Yrotation Zrotation
						End Site
						{
							OFFSET	1	0	0
						}
					}
				}
			}
		}
	}
	JOINT right_hip
	{
		OFFSET	82.8	-127.5	0.300001
		CHANNELS 3  Xrotation Yrotation Zrotation
		JOINT right_knee
		{
			OFFSET	28.2	-396.7	2.2
			CHANNELS 3  Xrotation Yrotation Zrotation
			JOINT right_ankle
			{
				OFFSET	11.7	-411.3	35.4
				CHANNELS 3  Xrotation Yrotation Zrotation
				JOINT right_toes
				{
					OFFSET	0	-60	-88.6
					CHANNELS 3  Xrotation Yrotation Zrotation
					JOINT right_foot_ee
					{
						OFFSET	22.5	-16.5	-42.2
						CHANNELS 3  Xrotation Yrotation Zrotation
						End Site
						{
							OFFSET	1	0	0
						}
					}
				}
			}
		}
	}
}
MOTION
Frames: 9
Frame Time: 0.02
811.739 714.557 -1487.15 -175.692 -71.5845 -179.682 -0.154836 0.308865 1.57313 -0.153484 0.20815 1.58959 -0.146872 -0.134697 1.59749 -0.150414 0.119254 1.59872 3.37838 -8.32523 -6.17666 3.5125 -9.16629 -7.45998 -0.0 0.0 -0.0 4.99937 23.9212 9.59465 -19.3446 -8.87745 58.3547 0.878091 -23.5078 0.182709 24.5229 0.202925 -3.10219 2.78218 1.70488 19.6112 -0.0 0.0 -0.0 -3.89619 -1.22903 7.34196 29.0245 71.7135 -92.3301 0.521313 14.4801 -0.0662277 -85.4434 8.5073 -5.17347 -6.83741 -13.1504 41.4973 0.0 0.0 0.0 31.3899 -10.0283 7.94329 -49.6983 -1.196 7.29811 -11.1951 10.9011 1.67279 13.721 -0.0 -0.0 -0.0 0.0 -0.0 -4.70129 53.5967 -2.1805 6.08537 0.297982 0.885568 15.4389 -20.9986 2.21098 26.7157 -0.0 -0.0 0.0 0.0 0.0 
826.805 711.915 -1480.13 -176.276 -71.5254 178.954 -0.199495 0.364228 1.91971 -0.197477 0.241357 1.93899 -0.188052 -0.177972 1.94583 -0.193311 0.131509 1.94952 4.13357 -9.27939 -6.19844 4.29265 -10.6626 -7.5338 -0.0 0.0 -0.0 4.75676 23.5012 9.27118 -19.5574 -8.43541 58.3988 0.833856 -22.4438 0.165442 23.0756 0.228004 -2.91902 2.69106 1.23665 18.7847 -0.0 0.0 -0.0 -3.73326 3.6326 7.91959 22.6518 67.0538 -84.7451 0.643046 17.6692 -0.0999474 -86.0082 8.57771 -5.15869 -6.50486 -13.6166 38.2593 0.0 0.0 0.0 30.3403 -6.41899 7.4669 -46.6994 -0.947011 6.90938 -9.29233 9.70174 1.3842 10.7842 -0.0 -0.0 -0.0 0.0 -0.0 -2.62944 51.5147 -6.02376 5.93699 0.289601 0.864362 12.3405 -21.2588 1.78897 27.4486 -0.0 -0.0 0.0 0.0 0.0 
839.477 706.352 -1466.3 -179.97 -71.4779 176.962 -0.314572 0.377268 1.69299 -0.313017 0.26879 1.71356 -0.303901 -0.106539 1.73123 -0.308045 0.168173 1.72634 4.35983 -10.5525 -6.35176 4.56364 -12.6879 -7.76723 -0.0 0.0 -0.0 4.28128 22.8199 8.61851 -19.5799 -8.00632 57.9163 0.772441 -20.939 0.14274 21.9216 0.244679 -2.77256 2.80294 -0.482395 18.894 -0.0 0.0 -0.0 -3.08929 6.63749 7.11058 25.513 65.5625 -85.1692 0.557884 15.4488 -0.0756715 -85.0224 8.45472 -5.18403 -5.98361 -11.9378 35.4229 0.0 0.0 0.0 28.6792 -11.069 7.94553 -39.3316 -0.424789 5.90449 -6.73001 15.7961 1.00627 6.2414 -0.0 -0.0 -0.0 0.0 -0.0 -2.56847 50.6187 -6.88484 5.15669 0.246434 0.7525 8.98502 -22.0363 1.32122 28.5077 -0.0 -0.0 0.0 0.0 0.0 
846.887 704.619 -1455.72 -178.872 -71.2669 177.615 -0.760996 0.485724 2.12643 -0.758548 0.349462 2.15301 -0.743386 -0.139089 2.17674 -0.749939 0.206348 2.1714 3.384 -11.7922 -6.21737 3.63922 -15.1817 -7.70702 -0.0 0.0 -0.0 4.12275 22.7094 8.39592 -19.5422 -7.6862 58.3379 0.7685 -20.8414 0.141335 20.3596 0.262545 -2.57384 3.0015 -3.46525 19.0794 -0.0 0.0 -0.0 -2.53104 8.78341 6.28543 27.532 63.4383 -84.0549 0.387682 10.8713 -0.0368902 -82.4898 8.13677 -5.2393 -5.23565 -9.56928 31.3403 0.0 0.0 0.0 26.3599 -17.7574 8.36864 -27.7188 0.12466 4.21064 -2.92249 24.4771 0.447723 -0.248543 0.0 0.0 -0.0 0.0 -0.0 -2.39624 49.3428 -8.24193 4.05199 0.187943 0.59317 4.41168 -23.0615 0.660256 30.3126 -0.0 -0.0 0.0 0.0 0.0 
859.859 713.717 -1447.26 179.744 -70.8088 176.528 -1.3463 0.525512 2.28902 -1.34347 0.378831 2.3178 -1.3253 -0.170986 2.34231 -1.3329 0.20098 2.33993 1.95677 -11.3791 -6.94725 2.18922 -14.1595 -8.54805 -0.0 0.0 -0.0 3.85303 22.2424 8.01566 -19.4706 -7.30073 58.7526 0.76351 -20.7176 0.139565 19.5038 0.270033 -2.4648 2.95541 -7.56321 16.9847 -0.0 0.0 -0.0 -2.5374 9.36217 6.38505 29.9159 62.7086 -84.3812 0.350492 9.84991 -0.0302017 -80.8178 7.92549 -5.26798 -4.38511 -7.52959 26.3177 0.0 0.0 0.0 27.2489 -20.4167 7.85472 -21.9209 0.267872 3.33278 2.84752 28.3473 -0.440426 -5.61995 0.0 0.0 -0.0 0.0 -0.0 -4.69493 49.2213 -6.81118 2.3295 0.102914 0.342613 2.7398 -23.6528 0.412926 31.1732 -0.0 -0.0 0.0 0.0 0.0 
880.163 705.986 -1437.69 -178.989 -70.5755 177.516 -1.40834 0.448672 2.27883 -1.4055 0.302794 2.30274 -1.39057 -0.244122 2.3097 -1.39799 0.123614 2.31926 2.80416 -12.1886 -9.58986 3.10651 -13.0984 -11.5076 -0.0 0.0 -0.0 3.71085 21.3493 7.80922 -18.9623 -6.88457 59.2195 0.762968 -20.7041 0.139373 18.1446 0.278578 -2.2914 2.59294 -7.73315 14.3702 -0.0 0.0 -0.0 -2.64789 10.1791 6.73833 33.0772 61.6805 -84.6329 0.298425 8.40938 -0.0219396 -80.406 7.87333 -5.27409 -3.1903 -2.14829 20.7368 0.0 0.0 0.0 26.6374 -21.0072 7.19664 -17.1172 0.318818 2.5977 10.758 28.5378 -1.63016 -11.7457 0.0 0.0 -0.0 0.0 -0.0 -4.84965 48.4307 -7.37346 0.144038 0.00595779 0.021301 2.22587 -24.3621 0.337058 32.1917 -0.0 -0.0 0.0 0.0 0.0 
896.212 692.722 -1432.16 178.829 -70.1398 175.256 -1.61263 0.328851 2.2183 -1.60991 0.187064 2.23472 -1.6 -0.348914 2.21523 -1.60685 0.00522796 2.24253 3.60222 -12.0062 -10.0992 3.90817 -12.1123 -12.0733 -0.0 0.0 -0.0 3.63995 20.7377 7.70146 -19.1423 -5.99766 59.9051 0.737739 -20.075 0.130583 16.6251 0.283257 -2.09739 2.32002 -9.26021 11.81 -0.0 0.0 -0.0 -2.78853 10.9683 7.15225 34.4604 61.0969 -84.9556 0.28151 7.93899 -0.0195345 -80.2158 7.84921 -5.27678 -2.14644 2.5701 15.6999 0.0 0.0 0.0 26.7103 -21.2266 7.50099 -11.5585 0.300717 1.74534 12.42 29.6038 -1.88568 -15.5458 0.0 0.0 -0.0 0.0 -0.0 -5.958 48.0873 -7.11772 -2.37539 -0.09049 -0.353287 4.08609 -25.7326 0.620371 31.0324 -0.0 -0.0 0.0 0.0 0.0 
905.031 696.156 -1431.29 179.548 -69.9633 174.623 -1.82049 0.328979 2.59394 -1.81676 0.163311 2.6096 -1.80565 -0.470352 2.57208 -1.81488 -0.0583818 2.61405 4.51962 -12.0185 -9.80904 4.81315 -12.1359 -11.7626 -0.0 0.0 -0.0 3.95686 20.0869 8.16536 -18.7586 -5.21931 61.3524 0.706552 -19.2903 0.120079 14.4624 0.281043 -1.82118 2.02189 -11.8172 8.63647 -0.0 0.0 -0.0 -3.03785 12.1063 7.85082 36.3838 60.1785 -84.72 0.287843 8.11523 -0.0204189 -79.236 7.72483 -5.28938 -1.04114 7.60341 10.3107 0.0 0.0 0.0 26.6154 -21.191 7.62621 -4.44921 0.157448 0.664497 11.7479 28.7363 -1.77695 -19.3972 0.0 0.0 -0.0 0.0 -0.0 -8.31313 47.6687 -4.87288 -1.59301 -0.0623063 -0.236523 4.62581 -27.3394 0.707887 28.8214 -0.0 -0.0 0.0 0.0 0.0 
914.711 696.696 -1433.97 -177.98 -69.1186 175.909 -2.09879 0.275368 3.11087 -2.09341 0.0769559 3.12208 -2.08385 -0.692758 3.0453 -2.09673 -0.203361 3.1164 5.82878 -11.7625 -9.33333 6.09548 -11.7667 -11.2394 -0.0 0.0 -0.0 4.41139 18.9515 8.85223 -17.4912 -4.21289 63.1156 0.655642 -17.9931 0.103804 12.4995 0.27001 -1.57071 1.59961 -14.547 4.5628 -0.0 0.0 -0.0 -3.41774 13.6118 8.88877 37.1116 59.2448 -84.1537 0.300518 8.46749 -0.0222466 -77.9236 7.55788 -5.30288 0.0410574 12.6921 5.12415 0.0 0.0 0.0 26.2887 -21.118 7.85143 5.15947 -0.246585 -0.752899 9.57319 25.7179 -1.43118 -24.3718 0.0 0.0 -0.0 0.0 -0.0 -11.3087 46.9358 -0.481514 -0.38259 -0.0155645 -0.0566494 5.63271 -28.7355 0.867314 26.0025 -0.0 -0.0 0.0 0.0 0.0 
